# xmcd CD database file
#
# Track frame offsets:
#	150
#	11592
#	23223
#	37632
#	48875
#	64606
#	77332
#	85515
#	96662
#	108088
#
# Disc length: 1560 seconds
#
# Revision: 0
# Processed by: cddbd v1.5.2PL0 Copyright (c) Steve Scherf et al.
# Submitted via: CDex 1.70beta2
#
DISCID=6106160a
DTITLE=George Strait - Fresh Cut Christmas
DYEAR=2006
DGENRE=Country
TTITLE0=Joy To The World
TTITLE1=We Three Kings
TTITLE2=Silent Night
TTITLE3=Jingle Bells
TTITLE4=O Come, All Ye Faithful
TTITLE5=Up On The Housetop
TTITLE6=We Wish You A Merry Christmas
TTITLE7=O Christmas Tree
TTITLE8=Hark, The Herald Angels Sing
TTITLE9=Deck The Halls
EXTD=YEAR: 2006
EXTT0=
EXTT1=
EXTT2=
EXTT3=
EXTT4=
EXTT5=
EXTT6=
EXTT7=
EXTT8=
EXTT9=
PLAYORDER=
